<svg xmlns="http://www.w3.org/2000/svg" width="960" height="540" viewBox="0 0 960 540">
<rect width="100%" height="100%" fill="#ffffff"/>
<text x="480.0" y="30" text-anchor="middle" font-size="20">Serial vs Parallel Query Runtime by Subset (speed_below_15)</text>
<line x1="90" y1="420" x2="920" y2="420" stroke="#333"/>
<line x1="90" y1="420" x2="90" y2="60" stroke="#333"/>
<text x="480.0" y="520" text-anchor="middle" font-size="14">Subset Size</text>
<text x="20" y="270.0" text-anchor="middle" font-size="14" transform="rotate(-90 20 270.0)">Mean Query Runtime (ms)</text>
<text x="228.33" y="458" text-anchor="middle" font-size="11" transform="rotate(20 228.33 458)">10k</text>
<rect x="131.50" y="418.86" width="94.83" height="1.14" fill="#1f77b4"/>
<rect x="228.33" y="413.44" width="94.83" height="6.56" fill="#ff7f0e"/>
<text x="505.00" y="458" text-anchor="middle" font-size="11" transform="rotate(20 505.00 458)">100k</text>
<rect x="408.17" y="403.59" width="94.83" height="16.41" fill="#1f77b4"/>
<rect x="505.00" y="398.83" width="94.83" height="21.17" fill="#ff7f0e"/>
<text x="781.67" y="458" text-anchor="middle" font-size="11" transform="rotate(20 781.67 458)">1M</text>
<rect x="684.83" y="199.58" width="94.83" height="220.42" fill="#1f77b4"/>
<rect x="781.67" y="70.00" width="94.83" height="350.00" fill="#ff7f0e"/>
<rect x="740" y="70" width="14" height="14" fill="#1f77b4"/>
<text x="760" y="82" font-size="12">serial</text>
<rect x="740" y="90" width="14" height="14" fill="#ff7f0e"/>
<text x="760" y="102" font-size="12">parallel t=4</text>
</svg>
