<svg xmlns="http://www.w3.org/2000/svg" width="960" height="540" viewBox="0 0 960 540">
<rect width="100%" height="100%" fill="#ffffff"/>
<text x="480.0" y="30" text-anchor="middle" font-size="20">Speedup vs Thread Count (time_window_all)</text>
<line x1="90" y1="450" x2="920" y2="450" stroke="#333"/>
<line x1="90" y1="450" x2="90" y2="60" stroke="#333"/>
<text x="480.0" y="520" text-anchor="middle" font-size="14">Thread Count</text>
<text x="20" y="270.0" text-anchor="middle" font-size="14" transform="rotate(-90 20 270.0)">Speedup</text>
<line x1="90.00" y1="450" x2="90.00" y2="456" stroke="#333"/>
<text x="90.00" y="474" text-anchor="middle" font-size="12">1</text>
<line x1="366.67" y1="450" x2="366.67" y2="456" stroke="#333"/>
<text x="366.67" y="474" text-anchor="middle" font-size="12">2</text>
<line x1="643.33" y1="450" x2="643.33" y2="456" stroke="#333"/>
<text x="643.33" y="474" text-anchor="middle" font-size="12">4</text>
<line x1="920.00" y1="450" x2="920.00" y2="456" stroke="#333"/>
<text x="920.00" y="474" text-anchor="middle" font-size="12">8</text>
<polyline fill="none" stroke="#1f77b4" stroke-width="2" points="90.00,273.05 366.67,358.54 643.33,384.23 920.00,440.00"/>
<circle cx="90.00" cy="273.05" r="3" fill="#1f77b4"/>
<circle cx="366.67" cy="358.54" r="3" fill="#1f77b4"/>
<circle cx="643.33" cy="384.23" r="3" fill="#1f77b4"/>
<circle cx="920.00" cy="440.00" r="3" fill="#1f77b4"/>
<rect x="740" y="70" width="14" height="14" fill="#1f77b4"/>
<text x="760" y="82" font-size="12">10k</text>
<polyline fill="none" stroke="#ff7f0e" stroke-width="2" points="90.00,234.16 366.67,109.70 643.33,70.00 920.00,80.13"/>
<circle cx="90.00" cy="234.16" r="3" fill="#ff7f0e"/>
<circle cx="366.67" cy="109.70" r="3" fill="#ff7f0e"/>
<circle cx="643.33" cy="70.00" r="3" fill="#ff7f0e"/>
<circle cx="920.00" cy="80.13" r="3" fill="#ff7f0e"/>
<rect x="740" y="90" width="14" height="14" fill="#ff7f0e"/>
<text x="760" y="102" font-size="12">100k</text>
<polyline fill="none" stroke="#2ca02c" stroke-width="2" points="90.00,286.50 366.67,232.29 643.33,220.03 920.00,199.03"/>
<circle cx="90.00" cy="286.50" r="3" fill="#2ca02c"/>
<circle cx="366.67" cy="232.29" r="3" fill="#2ca02c"/>
<circle cx="643.33" cy="220.03" r="3" fill="#2ca02c"/>
<circle cx="920.00" cy="199.03" r="3" fill="#2ca02c"/>
<rect x="740" y="110" width="14" height="14" fill="#2ca02c"/>
<text x="760" y="122" font-size="12">1M</text>
</svg>
