<svg xmlns="http://www.w3.org/2000/svg" width="960" height="540" viewBox="0 0 960 540">
<rect width="100%" height="100%" fill="#ffffff"/>
<text x="480.0" y="30" text-anchor="middle" font-size="20">Speedup vs Thread Count (summary)</text>
<line x1="90" y1="450" x2="920" y2="450" stroke="#333"/>
<line x1="90" y1="450" x2="90" y2="60" stroke="#333"/>
<text x="480.0" y="520" text-anchor="middle" font-size="14">Thread Count</text>
<text x="20" y="270.0" text-anchor="middle" font-size="14" transform="rotate(-90 20 270.0)">Speedup</text>
<line x1="90.00" y1="450" x2="90.00" y2="456" stroke="#333"/>
<text x="90.00" y="474" text-anchor="middle" font-size="12">1</text>
<line x1="366.67" y1="450" x2="366.67" y2="456" stroke="#333"/>
<text x="366.67" y="474" text-anchor="middle" font-size="12">2</text>
<line x1="643.33" y1="450" x2="643.33" y2="456" stroke="#333"/>
<text x="643.33" y="474" text-anchor="middle" font-size="12">4</text>
<line x1="920.00" y1="450" x2="920.00" y2="456" stroke="#333"/>
<text x="920.00" y="474" text-anchor="middle" font-size="12">8</text>
<polyline fill="none" stroke="#1f77b4" stroke-width="2" points="90.00,165.28 366.67,393.73 643.33,421.80 920.00,440.00"/>
<circle cx="90.00" cy="165.28" r="3" fill="#1f77b4"/>
<circle cx="366.67" cy="393.73" r="3" fill="#1f77b4"/>
<circle cx="643.33" cy="421.80" r="3" fill="#1f77b4"/>
<circle cx="920.00" cy="440.00" r="3" fill="#1f77b4"/>
<rect x="740" y="70" width="14" height="14" fill="#1f77b4"/>
<text x="760" y="82" font-size="12">10k</text>
<polyline fill="none" stroke="#ff7f0e" stroke-width="2" points="90.00,211.81 366.67,167.74 643.33,151.76 920.00,172.36"/>
<circle cx="90.00" cy="211.81" r="3" fill="#ff7f0e"/>
<circle cx="366.67" cy="167.74" r="3" fill="#ff7f0e"/>
<circle cx="643.33" cy="151.76" r="3" fill="#ff7f0e"/>
<circle cx="920.00" cy="172.36" r="3" fill="#ff7f0e"/>
<rect x="740" y="90" width="14" height="14" fill="#ff7f0e"/>
<text x="760" y="102" font-size="12">100k</text>
<polyline fill="none" stroke="#2ca02c" stroke-width="2" points="90.00,205.77 366.67,134.24 643.33,127.32 920.00,70.00"/>
<circle cx="90.00" cy="205.77" r="3" fill="#2ca02c"/>
<circle cx="366.67" cy="134.24" r="3" fill="#2ca02c"/>
<circle cx="643.33" cy="127.32" r="3" fill="#2ca02c"/>
<circle cx="920.00" cy="70.00" r="3" fill="#2ca02c"/>
<rect x="740" y="110" width="14" height="14" fill="#2ca02c"/>
<text x="760" y="122" font-size="12">1M</text>
</svg>
