<svg xmlns="http://www.w3.org/2000/svg" width="960" height="540" viewBox="0 0 960 540">
<rect width="100%" height="100%" fill="#ffffff"/>
<text x="480.0" y="30" text-anchor="middle" font-size="20">Optimized Parallel Speedup vs Threads (large_dev, borough_manhattan_speed_15)</text>
<line x1="90" y1="450" x2="920" y2="450" stroke="#333"/>
<line x1="90" y1="450" x2="90" y2="60" stroke="#333"/>
<text x="480.0" y="520" text-anchor="middle" font-size="14">Thread Count</text>
<text x="20" y="270.0" text-anchor="middle" font-size="14" transform="rotate(-90 20 270.0)">Speedup vs serial</text>
<line x1="90.00" y1="450" x2="90.00" y2="456" stroke="#333"/>
<text x="90.00" y="474" text-anchor="middle" font-size="12">1</text>
<line x1="366.67" y1="450" x2="366.67" y2="456" stroke="#333"/>
<text x="366.67" y="474" text-anchor="middle" font-size="12">2</text>
<line x1="643.33" y1="450" x2="643.33" y2="456" stroke="#333"/>
<text x="643.33" y="474" text-anchor="middle" font-size="12">4</text>
<line x1="920.00" y1="450" x2="920.00" y2="456" stroke="#333"/>
<text x="920.00" y="474" text-anchor="middle" font-size="12">8</text>
<polyline fill="none" stroke="#2ca02c" stroke-width="2" points="90.00,80.09 366.67,440.00 643.33,70.00 920.00,376.09"/>
<circle cx="90.00" cy="80.09" r="3" fill="#2ca02c"/>
<circle cx="366.67" cy="440.00" r="3" fill="#2ca02c"/>
<circle cx="643.33" cy="70.00" r="3" fill="#2ca02c"/>
<circle cx="920.00" cy="376.09" r="3" fill="#2ca02c"/>
<rect x="700" y="70" width="14" height="14" fill="#2ca02c"/>
<text x="720" y="82" font-size="12">optimized_parallel</text>
</svg>
