<svg xmlns="http://www.w3.org/2000/svg" width="960" height="540" viewBox="0 0 960 540">
<rect width="100%" height="100%" fill="#ffffff"/>
<text x="480.0" y="30" text-anchor="middle" font-size="20">Runtime by Subset (time_window_all)</text>
<line x1="90" y1="410" x2="920" y2="410" stroke="#333"/>
<line x1="90" y1="410" x2="90" y2="60" stroke="#333"/>
<text x="480.0" y="520" text-anchor="middle" font-size="14">Subset Size</text>
<text x="20" y="270.0" text-anchor="middle" font-size="14" transform="rotate(-90 20 270.0)">Mean Query Runtime (ms)</text>
<text x="228.33" y="446" text-anchor="middle" font-size="11" transform="rotate(20 228.33 446)">10k</text>
<rect x="131.50" y="409.99" width="46.42" height="0.01" fill="#1f77b4"/>
<rect x="179.92" y="409.95" width="46.42" height="0.05" fill="#ff7f0e"/>
<rect x="228.33" y="406.67" width="46.42" height="3.33" fill="#2ca02c"/>
<rect x="276.75" y="406.46" width="46.42" height="3.54" fill="#d62728"/>
<text x="505.00" y="446" text-anchor="middle" font-size="11" transform="rotate(20 505.00 446)">100k</text>
<rect x="408.17" y="409.82" width="46.42" height="0.18" fill="#1f77b4"/>
<rect x="456.58" y="409.83" width="46.42" height="0.17" fill="#ff7f0e"/>
<rect x="505.00" y="376.19" width="46.42" height="33.81" fill="#2ca02c"/>
<rect x="553.42" y="375.78" width="46.42" height="34.22" fill="#d62728"/>
<text x="781.67" y="446" text-anchor="middle" font-size="11" transform="rotate(20 781.67 446)">1M</text>
<rect x="684.83" y="407.96" width="46.42" height="2.04" fill="#1f77b4"/>
<rect x="733.25" y="407.26" width="46.42" height="2.74" fill="#ff7f0e"/>
<rect x="781.67" y="70.18" width="46.42" height="339.82" fill="#2ca02c"/>
<rect x="830.08" y="70.00" width="46.42" height="340.00" fill="#d62728"/>
<rect x="700" y="70" width="14" height="14" fill="#1f77b4"/>
<text x="720" y="82" font-size="12">serial</text>
<rect x="700" y="90" width="14" height="14" fill="#ff7f0e"/>
<text x="720" y="102" font-size="12">parallel t=4</text>
<rect x="700" y="110" width="14" height="14" fill="#2ca02c"/>
<text x="720" y="122" font-size="12">optimized serial</text>
<rect x="700" y="130" width="14" height="14" fill="#d62728"/>
<text x="720" y="142" font-size="12">optimized parallel t=4</text>
</svg>
